<svg width="605" height="605" xmlns="http://www.w3.org/2000/svg" xmlns:xlink="http://www.w3.org/1999/xlink" overflow="hidden"><defs><clipPath id="clip0"><rect x="0" y="0" width="605" height="605"/></clipPath></defs><g clip-path="url(#clip0)"><rect x="0" y="0" width="605" height="605" fill="#FFFFFF"/><path d="M141.5 96C141.5 79.7076 154.484 66.5001 170.5 66.5001 186.516 66.5001 199.5 79.7076 199.5 96 199.5 112.292 186.516 125.5 170.5 125.5 154.484 125.5 141.5 112.292 141.5 96Z" stroke="#000000" stroke-width="3.00165" stroke-miterlimit="8" fill="none" fill-rule="evenodd"/><text font-family="Calibri,Calibri_MSFontService,sans-serif" font-weight="400" font-size="32" transform="translate(161.436 106)">C</text><path d="M38.5 332C38.5 315.708 51.7076 302.5 68 302.5 84.2924 302.5 97.5 315.708 97.5 332 97.5 348.292 84.2924 361.5 68 361.5 51.7076 361.5 38.5 348.292 38.5 332Z" stroke="#000000" stroke-width="3.00165" stroke-miterlimit="8" fill="#E7E6E6" fill-rule="evenodd"/><text font-family="Calibri,Calibri_MSFontService,sans-serif" font-weight="400" font-size="32" transform="translate(59.0275 343)">R</text><path d="M172.168 125.5 172.168 176.824 168.833 176.824 168.832 125.5ZM178.838 175.156 170.5 185.162 162.162 175.156Z"/><path d="M1.30622-1.03665 57.0528 69.2061 54.4404 71.2794-1.30622 1.03665ZM61.241 63.7533 60.9298 76.7738 48.1789 74.1198Z" transform="matrix(-1 0 0 1 149.43 234.5)"/><path d="M141.5 332C141.5 315.708 154.484 302.5 170.5 302.5 186.516 302.5 199.5 315.708 199.5 332 199.5 348.292 186.516 361.5 170.5 361.5 154.484 361.5 141.5 348.292 141.5 332Z" stroke="#000000" stroke-width="3.00165" stroke-miterlimit="8" fill="#E7E6E6" fill-rule="evenodd"/><text font-family="Calibri,Calibri_MSFontService,sans-serif" font-weight="400" font-size="32" transform="translate(162.103 343)">T</text><path d="M172.168 243.5 172.168 294.824 168.833 294.824 168.832 243.5ZM178.838 293.156 170.5 303.162 162.162 293.156Z"/><path d="M140.5 450.5C140.5 434.484 153.484 421.5 169.5 421.5 185.516 421.5 198.5 434.484 198.5 450.5 198.5 466.516 185.516 479.5 169.5 479.5 153.484 479.5 140.5 466.516 140.5 450.5Z" stroke="#000000" stroke-width="3.00165" stroke-miterlimit="8" fill="none" fill-rule="evenodd"/><text font-family="Calibri,Calibri_MSFontService,sans-serif" font-weight="400" font-size="32" transform="translate(160.72 461)">C</text><path d="M171.168 361.5 171.168 412.824 167.833 412.824 167.832 361.5ZM177.838 411.156 169.5 421.162 161.162 411.156Z"/><path d="M139.5 568.5C139.5 552.484 152.708 539.5 169 539.5 185.292 539.5 198.5 552.484 198.5 568.5 198.5 584.516 185.292 597.5 169 597.5 152.708 597.5 139.5 584.516 139.5 568.5Z" stroke="#000000" stroke-width="3.00165" stroke-miterlimit="8" fill="#E7E6E6" fill-rule="evenodd"/><text font-family="Calibri,Calibri_MSFontService,sans-serif" font-weight="400" font-size="32" transform="translate(158.503 579)">H</text><path d="M171.168 479.5 171.168 530.824 167.833 530.824 167.832 479.5ZM177.838 529.156 169.5 539.162 161.162 529.156Z"/><path d="M38.5 449C38.5 432.708 51.7076 419.5 68 419.5 84.2924 419.5 97.5 432.708 97.5 449 97.5 465.292 84.2924 478.5 68 478.5 51.7076 478.5 38.5 465.292 38.5 449Z" stroke="#000000" stroke-width="3.00165" stroke-miterlimit="8" fill="#E7E6E6" fill-rule="evenodd"/><text font-family="Calibri,Calibri_MSFontService,sans-serif" font-weight="400" font-size="32" transform="translate(59.8613 459)">T</text><path d="M70.1676 360.5 70.1677 411.824 66.8325 411.824 66.8324 360.5ZM76.838 410.156 68.5001 420.162 60.1622 410.156Z"/><path d="M141.5 214C141.5 197.708 154.484 184.5 170.5 184.5 186.516 184.5 199.5 197.708 199.5 214 199.5 230.292 186.516 243.5 170.5 243.5 154.484 243.5 141.5 230.292 141.5 214Z" stroke="#000000" stroke-width="3.00165" stroke-miterlimit="8" fill="none" fill-rule="evenodd"/><text font-family="Calibri,Calibri_MSFontService,sans-serif" font-weight="400" font-size="32" transform="translate(160.686 224)">A</text><path d="M199.5 330.832 212.841 330.832 212.841 334.168 199.5 334.168ZM222.846 330.833 236.187 330.833 236.187 334.168 222.846 334.168ZM246.192 330.833 259.533 330.833 259.533 334.168 246.192 334.168ZM269.539 330.833 275.332 330.833 275.332 334.168 269.539 334.168ZM273.664 324.162 283.67 332.5 273.664 340.838Z"/><rect x="283" y="303" width="126" height="48" stroke="#000000" stroke-width="1.66759" stroke-linejoin="round" stroke-miterlimit="10" fill="#E7E6E6"/><text font-family="Calibri,Calibri_MSFontService,sans-serif" font-weight="400" font-size="32" transform="translate(310.613 337)">Word</text><rect x="283" y="351" width="126" height="48" stroke="#000000" stroke-width="1.66759" stroke-linejoin="round" stroke-miterlimit="10" fill="none"/><text font-family="Calibri,Calibri_MSFontService,sans-serif" font-weight="400" font-size="32" transform="translate(327.296 386)">sat</text><rect x="283" y="399" width="126" height="49" stroke="#000000" stroke-width="1.66759" stroke-linejoin="round" stroke-miterlimit="10" fill="none"/><text font-family="Calibri,Calibri_MSFontService,sans-serif" font-weight="400" font-size="32" transform="translate(296.545 434)">jumped</text><rect x="283" y="449" width="126" height="48" stroke="#000000" stroke-width="1.66759" stroke-linejoin="round" stroke-miterlimit="10" fill="none"/><text font-family="Calibri,Calibri_MSFontService,sans-serif" font-weight="400" font-size="32" transform="translate(335.316 483)">…</text><rect x="409" y="302" width="172" height="49" stroke="#000000" stroke-width="1.66759" stroke-linejoin="round" stroke-miterlimit="10" fill="#E7E6E6"/><text font-family="Calibri,Calibri_MSFontService,sans-serif" font-weight="400" font-size="32" transform="translate(427.448 337)">Frequency</text><rect x="409" y="351" width="172" height="48" stroke="#000000" stroke-width="1.66759" stroke-linejoin="round" stroke-miterlimit="10" fill="none"/><text font-family="Calibri,Calibri_MSFontService,sans-serif" font-weight="400" font-size="32" transform="translate(487.354 386)">3</text><rect x="409" y="399" width="172" height="49" stroke="#000000" stroke-width="1.66759" stroke-linejoin="round" stroke-miterlimit="10" fill="none"/><text font-family="Calibri,Calibri_MSFontService,sans-serif" font-weight="400" font-size="32" transform="translate(479.266 434)">12</text><rect x="409" y="449" width="172" height="48" stroke="#000000" stroke-width="1.66759" stroke-linejoin="round" stroke-miterlimit="10" fill="none"/><text font-family="Calibri,Calibri_MSFontService,sans-serif" font-weight="400" font-size="32" transform="translate(484.352 483)">…</text><path d="M172.168 7.49998 172.168 58.8239 168.833 58.8239 168.832 7.49999ZM178.838 57.1563 170.5 67.1618 162.162 57.1563Z"/></g></svg>