<svg width="1021" height="1021" xmlns="http://www.w3.org/2000/svg" xmlns:xlink="http://www.w3.org/1999/xlink" overflow="hidden"><defs><clipPath id="clip0"><rect x="0" y="0" width="1021" height="1021"/></clipPath></defs><g clip-path="url(#clip0)"><rect x="0" y="0" width="1021" height="1021" fill="#FFFFFF"/><path d="M540.5 141C540.5 107.035 568.034 79.5 602 79.5 635.966 79.5 663.5 107.035 663.5 141 663.5 174.966 635.966 202.5 602 202.5 568.034 202.5 540.5 174.966 540.5 141Z" stroke="#000000" stroke-width="3.00147" stroke-miterlimit="8" fill="#E7E6E6" fill-rule="evenodd"/><text font-family="Calibri,Calibri_MSFontService,sans-serif" font-weight="400" font-size="29" transform="matrix(1 0 0 1 573.076 150)">Root</text><path d="M0.986515-1.34435 162.205 116.961 160.232 119.65-0.986515 1.34435ZM164.807 110.597 167.94 123.238 154.942 124.041Z" transform="matrix(-1 0 0 1 558.44 184.5)"/><path d="M328.5 369C328.5 335.034 356.034 307.5 390 307.5 423.965 307.5 451.5 335.034 451.5 369 451.5 402.965 423.965 430.5 390 430.5 356.034 430.5 328.5 402.965 328.5 369Z" stroke="#000000" stroke-width="3.00147" stroke-miterlimit="8" fill="#E7E6E6" fill-rule="evenodd"/><text font-family="Calibri,Calibri_MSFontService,sans-serif" font-weight="400" font-size="29" transform="matrix(1 0 0 1 366.11 378)">cats</text><path d="M725.5 365C725.5 333.244 751.244 307.5 783 307.5 814.756 307.5 840.5 333.244 840.5 365 840.5 396.756 814.756 422.5 783 422.5 751.244 422.5 725.5 396.756 725.5 365Z" stroke="#000000" stroke-width="3.00147" stroke-miterlimit="8" fill="#E7E6E6" fill-rule="evenodd"/><text font-family="Calibri,Calibri_MSFontService,sans-serif" font-weight="400" font-size="29" transform="matrix(1 0 0 1 763.142 374)">eat</text><path d="M328.5 567C328.5 533.034 356.034 505.5 390 505.5 423.965 505.5 451.5 533.034 451.5 567 451.5 600.966 423.965 628.5 390 628.5 356.034 628.5 328.5 600.966 328.5 567Z" stroke="#000000" stroke-width="3.00147" stroke-miterlimit="8" fill="#E7E6E6" fill-rule="evenodd"/><text font-family="Calibri,Calibri_MSFontService,sans-serif" font-weight="400" font-size="29" transform="matrix(1 0 0 1 370.572 576)">eat</text><path d="M156.5 562.5C156.5 528.258 184.258 500.5 218.5 500.5 252.742 500.5 280.5 528.258 280.5 562.5 280.5 596.742 252.742 624.5 218.5 624.5 184.258 624.5 156.5 596.742 156.5 562.5Z" stroke="#000000" stroke-width="3.00147" stroke-miterlimit="8" fill="none" fill-rule="evenodd"/><text font-family="Calibri,Calibri_MSFontService,sans-serif" font-weight="400" font-size="29" transform="matrix(1 0 0 1 187.368 571)">jump</text><path d="M488.5 566C488.5 532.034 516.034 504.5 550 504.5 583.965 504.5 611.5 532.034 611.5 566 611.5 599.965 583.965 627.5 550 627.5 516.034 627.5 488.5 599.965 488.5 566Z" stroke="#000000" stroke-width="3.00147" stroke-miterlimit="8" fill="none" fill-rule="evenodd"/><text font-family="Calibri,Calibri_MSFontService,sans-serif" font-weight="400" font-size="29" transform="matrix(1 0 0 1 533.91 575)">do</text><path d="M328.5 760C328.5 726.034 356.034 698.5 390 698.5 423.965 698.5 451.5 726.034 451.5 760 451.5 793.966 423.965 821.5 390 821.5 356.034 821.5 328.5 793.966 328.5 760Z" stroke="#000000" stroke-width="3.00147" stroke-miterlimit="8" fill="#E7E6E6" fill-rule="evenodd"/><text font-family="Calibri,Calibri_MSFontService,sans-serif" font-weight="400" font-size="29" transform="matrix(1 0 0 1 356.595 769)">alone</text><path d="M488.5 762C488.5 728.034 516.034 700.5 550 700.5 583.965 700.5 611.5 728.034 611.5 762 611.5 795.965 583.965 823.5 550 823.5 516.034 823.5 488.5 795.965 488.5 762Z" stroke="#000000" stroke-width="3.00147" stroke-miterlimit="8" fill="none" fill-rule="evenodd"/><text font-family="Calibri,Calibri_MSFontService,sans-serif" font-weight="400" font-size="29" transform="matrix(1 0 0 1 520.73 771)">after</text><path d="M156.5 757C156.5 723.034 184.258 695.5 218.5 695.5 252.742 695.5 280.5 723.034 280.5 757 280.5 790.966 252.742 818.5 218.5 818.5 184.258 818.5 156.5 790.966 156.5 757Z" stroke="#000000" stroke-width="3.00147" stroke-miterlimit="8" fill="none" fill-rule="evenodd"/><text font-family="Calibri,Calibri_MSFontService,sans-serif" font-weight="400" font-size="29" transform="matrix(1 0 0 1 184.783 766)">when</text><path d="M646.871 183.551 739.01 316.752 736.267 318.649 644.129 185.449ZM743.547 311.586 742.382 324.557 729.833 321.072Z"/><path d="M1.66748-9.36094e-06 1.66786 66.5053-1.66711 66.5053-1.66748 9.36094e-06ZM8.33778 64.8378 0.000420153 74.8427-8.33705 64.8379Z" transform="matrix(-1 0 0 1 390.5 430.5)"/><path d="M1.66748-2.50603e-06 1.66758 61.5538-1.66739 61.5538-1.66748 2.50603e-06ZM8.33751 59.8863 0.000105038 69.8912-8.33733 59.8863Z" transform="matrix(-1 0 0 1 390.5 628.5)"/><path d="M434.535 411.192 544.064 497.863 541.995 500.478 432.465 413.808ZM546.896 491.598 549.568 504.344 536.548 504.674Z"/><path d="M1.30417-1.03906 80.6945 98.6067 78.0862 100.685-1.30417 1.03906ZM84.8721 93.1463 84.5857 106.167 71.8305 103.537Z" transform="matrix(-1 0 0 1 347.086 412.5)"/><path d="M434.884 609.569 502.727 710.427 499.959 712.288 432.116 611.431ZM507.33 705.32 505.996 718.275 493.494 714.627Z"/><path d="M1.28859-1.05832 80.5824 95.4876 78.0052 97.6043-1.28859 1.05832ZM84.6783 89.9657 84.5854 102.989 71.7925 100.549Z" transform="matrix(-1 0 0 1 347.085 610.5)"/><path d="M784.167 422.5 784.168 501.386 780.833 501.386 780.832 422.5ZM790.837 499.719 782.5 509.724 774.163 499.719Z"/><path d="M0.974309-1.35323 100.849 70.5558 98.9008 73.2623-0.974309 1.35323ZM103.393 64.1686 106.641 76.7806 93.6503 77.7009Z" transform="matrix(-1 0 0 1 175.141 605.5)"/><text font-family="Calibri,Calibri_MSFontService,sans-serif" font-weight="400" font-size="29" transform="matrix(1 0 0 1 170.148 862)">Freq<tspan font-size="29" x="53.3061" y="0">: 3</tspan><tspan font-size="29" x="188.602" y="0">Freq</tspan><tspan font-size="29" x="241.909" y="0">: 2</tspan><tspan font-size="29" x="348.186" y="0">Freq</tspan><tspan font-size="29" x="401.492" y="0">: 6</tspan></text><path d="M721.5 571C721.5 537.034 749.034 509.5 783 509.5 816.965 509.5 844.5 537.034 844.5 571 844.5 604.965 816.965 632.5 783 632.5 749.034 632.5 721.5 604.965 721.5 571Z" stroke="#000000" stroke-width="3.00147" stroke-miterlimit="8" fill="#E7E6E6" fill-rule="evenodd"/><text font-family="Calibri,Calibri_MSFontService,sans-serif" font-weight="400" font-size="29" transform="matrix(1 0 0 1 749.165 580)">alone</text><path d="M721.5 769C721.5 735.034 749.034 707.5 783 707.5 816.965 707.5 844.5 735.034 844.5 769 844.5 802.966 816.965 830.5 783 830.5 749.034 830.5 721.5 802.966 721.5 769Z" stroke="#000000" stroke-width="3.00147" stroke-miterlimit="8" fill="#E7E6E6" fill-rule="evenodd"/><text font-family="Calibri,Calibri_MSFontService,sans-serif" font-weight="400" font-size="29" transform="matrix(1 0 0 1 774.427 778)">if</text><path d="M784.167 632.5 784.168 698.754 780.833 698.754 780.832 632.5ZM790.837 697.087 782.5 707.091 774.163 697.087Z"/><text font-family="Calibri,Calibri_MSFontService,sans-serif" font-weight="400" font-size="29" transform="matrix(1 0 0 1 742.099 870)">Freq<tspan font-size="29" x="53.3061" y="0">: 2</tspan></text><path d="M824.72 404.364 915.921 502.305 913.48 504.577 822.28 406.636ZM919.665 496.539 920.382 509.543 907.462 507.902Z"/><path d="M664.171 138.973 913.464 248.532 912.122 251.585 662.829 142.027ZM914.621 241.755 920.426 253.413 907.912 257.021Z"/><path d="M827.786 613.438 902.144 703.467 899.572 705.591 825.214 615.562ZM906.224 697.934 906.167 710.957 893.368 708.552Z"/><path d="M0.594765-1.5578 389.211 146.815 388.021 149.93-0.594765 1.5578ZM390.033 139.989 396.406 151.346 384.085 155.567Z" transform="matrix(-1 0 0 1 539.906 140.5)"/><path d="M607.903 600.598 631.561 637.396 628.756 639.2 605.097 602.402ZM636.27 632.387 634.667 645.311 622.244 641.404Z"/><text font-family="Calibri,Calibri_MSFontService,sans-serif" font-weight="400" font-size="29" transform="matrix(1 0 0 1 648.429 658)">…<tspan font-size="29" x="297.169" y="-387">…</tspan><tspan font-size="29" x="270.368" y="64">…</tspan><tspan font-size="29" x="293.77" y="-134">…</tspan><tspan font-size="29" x="-542.447" y="-342">…</tspan><tspan font-size="29" x="-609.095" y="48">…</tspan></text></g></svg>