<svg width="605" height="605" xmlns="http://www.w3.org/2000/svg" xmlns:xlink="http://www.w3.org/1999/xlink" overflow="hidden"><defs><clipPath id="clip0"><rect x="0" y="0" width="605" height="605"/></clipPath></defs><g clip-path="url(#clip0)"><rect x="0" y="0" width="605" height="605" fill="#FFFFFF"/><path d="M141.5 67C141.5 50.7076 154.484 37.5 170.5 37.5 186.516 37.5 199.5 50.7076 199.5 67 199.5 83.2924 186.516 96.5 170.5 96.5 154.484 96.5 141.5 83.2924 141.5 67Z" stroke="#000000" stroke-width="3.00165" stroke-miterlimit="8" fill="none" fill-rule="evenodd"/><text font-family="Calibri,Calibri_MSFontService,sans-serif" font-weight="400" font-size="32" transform="translate(161.436 77)">C</text><path d="M38.5 303C38.5 286.708 51.7076 273.5 68 273.5 84.2924 273.5 97.5 286.708 97.5 303 97.5 319.292 84.2924 332.5 68 332.5 51.7076 332.5 38.5 319.292 38.5 303Z" stroke="#000000" stroke-width="3.00165" stroke-miterlimit="8" fill="#E7E6E6" fill-rule="evenodd"/><text font-family="Calibri,Calibri_MSFontService,sans-serif" font-weight="400" font-size="32" transform="translate(59.0275 313)">R</text><path d="M172.168 96.5 172.168 147.824 168.833 147.824 168.832 96.5ZM178.838 146.156 170.5 156.162 162.162 146.156Z"/><path d="M1.30622-1.03665 57.0528 69.2061 54.4404 71.2794-1.30622 1.03665ZM61.241 63.7533 60.9298 76.7738 48.1789 74.1198Z" transform="matrix(-1 0 0 1 149.43 205.5)"/><path d="M141.5 303C141.5 286.708 154.484 273.5 170.5 273.5 186.516 273.5 199.5 286.708 199.5 303 199.5 319.292 186.516 332.5 170.5 332.5 154.484 332.5 141.5 319.292 141.5 303Z" stroke="#000000" stroke-width="3.00165" stroke-miterlimit="8" fill="#E7E6E6" fill-rule="evenodd"/><text font-family="Calibri,Calibri_MSFontService,sans-serif" font-weight="400" font-size="32" transform="translate(162.103 313)">T</text><path d="M172.168 214.5 172.168 265.824 168.833 265.824 168.832 214.5ZM178.838 264.156 170.5 274.162 162.162 264.156Z"/><path d="M140.5 421.5C140.5 405.484 153.484 392.5 169.5 392.5 185.516 392.5 198.5 405.484 198.5 421.5 198.5 437.516 185.516 450.5 169.5 450.5 153.484 450.5 140.5 437.516 140.5 421.5Z" stroke="#000000" stroke-width="3.00165" stroke-miterlimit="8" fill="none" fill-rule="evenodd"/><text font-family="Calibri,Calibri_MSFontService,sans-serif" font-weight="400" font-size="32" transform="translate(160.72 432)">C</text><path d="M171.168 332.5 171.168 383.824 167.833 383.824 167.832 332.5ZM177.838 382.156 169.5 392.162 161.162 382.156Z"/><path d="M139.5 539.5C139.5 523.484 152.708 510.5 169 510.5 185.292 510.5 198.5 523.484 198.5 539.5 198.5 555.516 185.292 568.5 169 568.5 152.708 568.5 139.5 555.516 139.5 539.5Z" stroke="#000000" stroke-width="3.00165" stroke-miterlimit="8" fill="#E7E6E6" fill-rule="evenodd"/><text font-family="Calibri,Calibri_MSFontService,sans-serif" font-weight="400" font-size="32" transform="translate(158.503 550)">H</text><path d="M171.168 450.5 171.168 501.824 167.833 501.824 167.832 450.5ZM177.838 500.156 169.5 510.162 161.162 500.156Z"/><path d="M38.5 420C38.5 403.708 51.7076 390.5 68 390.5 84.2924 390.5 97.5 403.708 97.5 420 97.5 436.292 84.2924 449.5 68 449.5 51.7076 449.5 38.5 436.292 38.5 420Z" stroke="#000000" stroke-width="3.00165" stroke-miterlimit="8" fill="#E7E6E6" fill-rule="evenodd"/><text font-family="Calibri,Calibri_MSFontService,sans-serif" font-weight="400" font-size="32" transform="translate(59.8613 430)">T</text><path d="M70.1676 331.5 70.1677 382.824 66.8325 382.824 66.8324 331.5ZM76.838 381.156 68.5001 391.162 60.1622 381.156Z"/><path d="M141.5 184.5C141.5 168.484 154.484 155.5 170.5 155.5 186.516 155.5 199.5 168.484 199.5 184.5 199.5 200.516 186.516 213.5 170.5 213.5 154.484 213.5 141.5 200.516 141.5 184.5Z" stroke="#000000" stroke-width="3.00165" stroke-miterlimit="8" fill="none" fill-rule="evenodd"/><text font-family="Calibri,Calibri_MSFontService,sans-serif" font-weight="400" font-size="32" transform="translate(160.686 195)">A</text><path d="M199.5 301.832 212.841 301.832 212.841 305.168 199.5 305.168ZM222.846 301.832 236.187 301.832 236.187 305.168 222.846 305.168ZM246.192 301.832 259.533 301.833 259.533 305.168 246.192 305.168ZM269.539 301.833 275.332 301.833 275.332 305.168 269.539 305.168ZM273.664 295.162 283.67 303.5 273.664 311.838Z"/><rect x="283" y="273" width="126" height="49" stroke="#000000" stroke-width="1.66759" stroke-linejoin="round" stroke-miterlimit="10" fill="#E7E6E6"/><text font-family="Calibri,Calibri_MSFontService,sans-serif" font-weight="400" font-size="32" transform="translate(310.613 308)">Word</text><rect x="283" y="322" width="126" height="48" stroke="#000000" stroke-width="1.66759" stroke-linejoin="round" stroke-miterlimit="10" fill="none"/><text font-family="Calibri,Calibri_MSFontService,sans-serif" font-weight="400" font-size="32" transform="translate(327.296 357)">sat</text><rect x="283" y="370" width="126" height="49" stroke="#000000" stroke-width="1.66759" stroke-linejoin="round" stroke-miterlimit="10" fill="none"/><text font-family="Calibri,Calibri_MSFontService,sans-serif" font-weight="400" font-size="32" transform="translate(296.545 405)">jumped</text><rect x="283" y="420" width="126" height="48" stroke="#000000" stroke-width="1.66759" stroke-linejoin="round" stroke-miterlimit="10" fill="none"/><text font-family="Calibri,Calibri_MSFontService,sans-serif" font-weight="400" font-size="32" transform="translate(335.316 454)">…</text><rect x="409" y="273" width="172" height="49" stroke="#000000" stroke-width="1.66759" stroke-linejoin="round" stroke-miterlimit="10" fill="#E7E6E6"/><text font-family="Calibri,Calibri_MSFontService,sans-serif" font-weight="400" font-size="32" transform="translate(427.448 308)">Frequency</text><rect x="409" y="322" width="172" height="48" stroke="#000000" stroke-width="1.66759" stroke-linejoin="round" stroke-miterlimit="10" fill="none"/><text font-family="Calibri,Calibri_MSFontService,sans-serif" font-weight="400" font-size="32" transform="translate(487.354 357)">3</text><rect x="409" y="370" width="172" height="49" stroke="#000000" stroke-width="1.66759" stroke-linejoin="round" stroke-miterlimit="10" fill="none"/><text font-family="Calibri,Calibri_MSFontService,sans-serif" font-weight="400" font-size="32" transform="translate(479.266 405)">12</text><rect x="409" y="420" width="172" height="48" stroke="#000000" stroke-width="1.66759" stroke-linejoin="round" stroke-miterlimit="10" fill="none"/><text font-family="Calibri,Calibri_MSFontService,sans-serif" font-weight="400" font-size="32" transform="translate(484.352 454)">…</text></g></svg>